<svg id="Layer_1" data-name="Layer 1" xmlns="http://www.w3.org/2000/svg" viewBox="0 0 18.13 23.66"><defs><style>.cls-1{fill:#dd4142;}</style></defs><title>icon</title><path class="cls-1" d="M12.71,23.35l-.13-.14c-.4-.51-.79-1-1.21-1.53a2,2,0,0,1-.49-1.11,7,7,0,0,1,0-.79c0-4.57,0-9.14,0-13.71,0-.1,0-.2,0-.3a1.62,1.62,0,0,0-1.1-1.51,1.84,1.84,0,0,0-2,.35A1.84,1.84,0,0,0,7.25,6q0,6.9,0,13.79a10.34,10.34,0,0,0,.08,1.36,4.75,4.75,0,0,0,1,2.43c.84,1,1.69,2,2.54,3a6.94,6.94,0,0,0,.75.78,1.34,1.34,0,0,0,1.13.34,2.11,2.11,0,0,0,1.46-.95c.65-.93,1.27-1.87,1.9-2.8.06-.08.12-.15.18-.24l.14.18c.65,1,1.3,1.92,2,2.87a3.23,3.23,0,0,0,.71.72,1.87,1.87,0,0,0,.72.28,1.64,1.64,0,0,0,1.51-.7c1-1.15,1.88-2.32,2.84-3.47a5.14,5.14,0,0,0,1.15-3.4c0-4.75,0-9.51,0-14.26a1.84,1.84,0,0,0,0-.41,1.59,1.59,0,0,0-1.47-1.32,1.72,1.72,0,0,0-2,1.2,2.2,2.2,0,0,0-.06.58q0,7,0,13.93a2.41,2.41,0,0,1-.38,1.52L20.1,23.23a.45.45,0,0,1-.1.09l-.07-.09c-.42-.56-.87-1.1-1.26-1.69a2.89,2.89,0,0,1-.56-1.67c0-1,0-2.07,0-3.11,0-.16,0-.21-.21-.21H14.73c-.19,0-.23.06-.22.24,0,1,0,2.05,0,3.07a2.86,2.86,0,0,1-.15.92A10.58,10.58,0,0,1,12.71,23.35Zm1.8-10.65H18.1c0-.06,0-.1,0-.15V6a1.91,1.91,0,0,0-.06-.48,1.64,1.64,0,0,0-1.48-1.3,1.74,1.74,0,0,0-2.06,1.72V12.7Z" transform="translate(-7.25 -4.12)"/><path class="cls-1" d="M12.71,23.35a10.58,10.58,0,0,0,1.64-2.57,2.86,2.86,0,0,0,.15-.92c0-1,0-2.05,0-3.07,0-.18,0-.24.22-.24H17.9c.17,0,.21.05.21.21,0,1,0,2.08,0,3.11a2.89,2.89,0,0,0,.56,1.67c.39.59.84,1.13,1.26,1.69l.07.09a.45.45,0,0,0,.1-.09l1.35-1.79a2.41,2.41,0,0,0,.38-1.52q0-7,0-13.93a2.2,2.2,0,0,1,.06-.58,1.72,1.72,0,0,1,2-1.2,1.59,1.59,0,0,1,1.47,1.32,1.84,1.84,0,0,1,0,.41c0,4.75,0,9.51,0,14.26a5.14,5.14,0,0,1-1.15,3.4c-1,1.15-1.88,2.32-2.84,3.47a1.64,1.64,0,0,1-1.51.7,1.87,1.87,0,0,1-.72-.28,3.23,3.23,0,0,1-.71-.72c-.68-.95-1.33-1.91-2-2.87l-.14-.18c-.06.09-.12.16-.18.24-.63.93-1.25,1.87-1.9,2.8a2.11,2.11,0,0,1-1.46.95,1.34,1.34,0,0,1-1.13-.34,6.94,6.94,0,0,1-.75-.78c-.85-1-1.7-2-2.54-3a4.75,4.75,0,0,1-1-2.43,10.34,10.34,0,0,1-.08-1.36q0-6.88,0-13.79a1.84,1.84,0,0,1,.51-1.42,1.84,1.84,0,0,1,2-.35,1.62,1.62,0,0,1,1.1,1.51c0,.1,0,.2,0,.3,0,4.57,0,9.14,0,13.71a7,7,0,0,0,0,.79,2,2,0,0,0,.49,1.11c.42.5.81,1,1.21,1.53Z" transform="translate(-7.25 -4.12)"/><path class="cls-1" d="M14.51,12.7V5.93a1.74,1.74,0,0,1,2.06-1.72,1.64,1.64,0,0,1,1.48,1.3,1.91,1.91,0,0,1,.06.48v6.56s0,.09,0,.15Z" transform="translate(-7.25 -4.12)"/></svg>